<svg xmlns="http://www.w3.org/2000/svg" viewBox="0 0 308.5 247.59"><defs><style>.cls-1,.cls-2{fill:#dd5e1b;stroke:#231815;stroke-width:3px;}.cls-1{stroke-miterlimit:10;}.cls-2{stroke-linecap:round;stroke-linejoin:round;}.cls-3{fill:#231815;}</style></defs><title>螃蟹 (2)</title><g id="图层_2" data-name="图层 2"><g id="物件"><g id="螃蟹"><g id="蟹"><path class="cls-1" d="M118.83,130.36s-9.24-8-18.84-9.47a15.93,15.93,0,0,0-8.36.73c-11.7,4.63-1,25.12-1,25.12S106,134,118.83,130.36Z"/><path class="cls-1" d="M100,120.89a27.81,27.81,0,0,1-2.43-15.66c1.23-8.92.19-15.64-13.89-12.28s-12.28,23.69,2.79,34.88C89.67,122.69,88.68,120.53,100,120.89Z"/><path class="cls-2" d="M96.91,95.34s8.6-2.25,9.46-13S117,44.51,117,44.51a32.27,32.27,0,0,0-6.7-26c-.11,9.07-6.15,22.09-12.46,25.75S87.6,56.51,88,59.34c-.28-1.76-19.83,3.06-9.31,36.05C92.67,88.2,96.91,95.34,96.91,95.34Z"/><path class="cls-2" d="M88,58.62s-5.33-9-3.44-33.61-10.32,8.15-10.32,8.15S66.5,52.48,78.32,66C81.19,62.17,81.3,60.24,88,58.62Z"/><path class="cls-2" d="M75.47,167.61c-28.11,8.86-30.38-1.32-30.38-1.32s-3.41-9,6.47-13.52,34.14-1.15,34.14-1.15C88.24,149,75.47,167.61,75.47,167.61Z"/><path class="cls-2" d="M70.31,178.61c-26,13.61-29.71,5.63-29.71,5.63s-4.62-6.76,4.33-12.68,33-8.54,33-8.54C80,160.25,70.31,178.61,70.31,178.61Z"/><path class="cls-2" d="M54.19,151.85s-19.7-10.2-19.52-20.37c0,0,2.77-8.16-7.62-5.37s-7.68,18.73-4.52,21.26C25.62,152.68,37.17,161,44,159.92,44,159.92,47.14,153.46,54.19,151.85Z"/><path class="cls-2" d="M34,126.54l10.23-22.88s-11.65-4.15-19.66,10.18-1.39,14.38-1.39,14.38S29.28,123.32,34,126.54Z"/><path class="cls-2" d="M43.58,172.54S24,159.07,13.69,163.76s6.66,27.58,25.82,17.48C39.6,178.31,39.91,174.83,43.58,172.54Z"/><path class="cls-2" d="M17.86,162.73s-5.1-9.57-5.62-13.26S7,141,2.7,150.94s3.85,16.48,7.79,17.66C11.78,164.62,12.62,163.54,17.86,162.73Z"/><path class="cls-2" d="M72.44,178.19s-1.45,10.91.4,17.42-24.36,9.67-27.91,5.44-3.85-11.76,4.27-14.64A76.61,76.61,0,0,0,72.44,178.19Z"/><path class="cls-2" d="M43,192S15.09,186.28,15,205.05s29.38-4.54,29.38-4.54S41.64,196,43,192Z"/><path class="cls-2" d="M20.9,212.47s-.29,16.88-7.84,10.37S15,205.05,15,205.05,14.79,212.06,20.9,212.47Z"/><path class="cls-2" d="M73.74,199.19S56.12,201.24,68,219.54c7.27,7.54,14.24-3.36,14.24-3.36S75.53,207.64,73.74,199.19Z"/><path class="cls-2" d="M64.05,210.43S43,212,39.31,226s26.23,4.67,28.7-6.45C65.53,215.08,65.58,216.23,64.05,210.43Z"/><path class="cls-2" d="M39.31,226s-14.37,2.06-16.71,10.48c5.82-.57,12,4.85,20-3.1C40.15,231.34,37.84,231.69,39.31,226Z"/></g><ellipse class="cls-2" cx="157.18" cy="182.19" rx="85.33" ry="62.93" transform="translate(-31.79 33.23) rotate(-10.97)"/><circle class="cls-3" cx="147.49" cy="140.67" r="5.19"/><circle class="cls-3" cx="167.01" cy="135.48" r="5.19"/><path class="cls-1" d="M186.31,120.08s7.92-9.29,17.18-12.24a15.81,15.81,0,0,1,8.37-.55c12.27,2.78,4.87,24.65,4.87,24.65S199.53,121.68,186.31,120.08Z"/><path class="cls-1" d="M203.49,107.84a27.73,27.73,0,0,0,0-15.85c-2.57-8.62-2.57-15.42,11.85-14.26s15.76,21.54,2.57,34.9C214,108,214.61,105.75,203.49,107.84Z"/><path class="cls-2" d="M202.63,82.12s-8.84-.91-11.33-11.36S175.05,35,175.05,35a32.27,32.27,0,0,1,2.65-26.7c1.49,9,9.45,20.89,16.25,23.54s11.94,10.53,11.94,13.39c0-1.78,20.07,0,14.71,34.21C205.73,74.41,202.63,82.12,202.63,82.12Z"/><path class="cls-2" d="M205.81,44.47s3.9-9.69-1.74-33.74,11.44,6.47,11.44,6.47,10.61,17.91,1,33.05C213.09,46.94,212.69,45.05,205.81,44.47Z"/><path class="cls-2" d="M234.86,150.26c29.13,4.46,29.82-5.95,29.82-5.95s2-9.45-8.46-12.37S222.31,136,222.31,136C219.39,133.78,234.86,150.26,234.86,150.26Z"/><path class="cls-2" d="M241.64,160.34c27.81,9.48,30.22,1,30.22,1s3.53-7.39-6.22-11.88-33.92-3.38-33.92-3.38C229.24,143.68,241.64,160.34,241.64,160.34Z"/><path class="cls-2" d="M253.48,131.43s17.91-13.09,16.17-23.11c0,0-4-7.64,6.72-6.47s10.45,17.34,7.71,20.32c-2.24,5.72-12.38,15.67-19.25,15.67C264.83,137.84,260.7,131.94,253.48,131.43Z"/><path class="cls-2" d="M269.58,103.34,256,82.28s10.89-5.88,21,7.06,3.57,14,3.57,14S273.74,99.43,269.58,103.34Z"/><path class="cls-2" d="M267.13,150.26S284.42,134,295.32,137s-2.36,28.26-22.84,21.22C271.94,155.35,271.1,152,267.13,150.26Z"/><path class="cls-2" d="M291,136.63s3.58-10.23,3.53-14,3.94-9.2,9.66,0-1.29,16.87-5,18.63C297.35,137.57,296.35,136.63,291,136.63Z"/><path class="cls-2" d="M239.47,160.26s3.11,10.56,2.27,17.27,25.55,5.83,28.41,1.11,2-12.21-6.46-13.82A76.67,76.67,0,0,1,239.47,160.26Z"/><path class="cls-2" d="M270.65,169.38s26.74-9.9,29.72,8.63-29.72,0-29.72,0S272.64,173.18,270.65,169.38Z"/><path class="cls-2" d="M295.65,186.25s2.86,16.64,9.32,9.05-4.6-17.29-4.6-17.29S301.62,184.91,295.65,186.25Z"/><path class="cls-2" d="M241.4,181.21s17.72-.67,8.77,19.23c-6,8.56-14.58-1.15-14.58-1.15S240.92,189.83,241.4,181.21Z"/><path class="cls-2" d="M252.69,190.83s21-1.66,26.83,11.6-25.21,8.63-29.35-2C251.94,195.65,252.06,196.8,252.69,190.83Z"/><path class="cls-2" d="M279.52,202.43s14.51-.16,18.12,7.8c-5.85.33-11.16,6.63-20.28,0C279.5,207.84,281.84,207.84,279.52,202.43Z"/></g></g></g></svg>